<svg xmlns="http://www.w3.org/2000/svg" width="720" height="720" viewBox="0 0 720 720">
  <defs>
    <pattern id="fine" width="24" height="24" patternUnits="userSpaceOnUse">
      <path d="M 24 0 L 0 0 0 24" fill="none" stroke="rgba(120, 170, 210, 0.10)" stroke-width="1"/>
    </pattern>

    <pattern id="major" width="120" height="120" patternUnits="userSpaceOnUse">
      <path d="M 120 0 L 0 0 0 120" fill="none" stroke="rgba(120, 165, 200, 0.10)" stroke-width="1.2"/>
    </pattern>

    <!-- pluses at tile corners only (clean tessellation; no center plus) -->
    <pattern id="plus" width="120" height="120" patternUnits="userSpaceOnUse">
      <g opacity="0.40" stroke="rgba(190, 230, 255, 0.40)" stroke-width="2.2" stroke-linecap="round">
        <g transform="translate(0 0)">
          <path d="M 0 -4 L 0 4" />
          <path d="M -4 0 L 4 0" />
        </g>
        <g transform="translate(120 0)">
          <path d="M 0 -4 L 0 4" />
          <path d="M -4 0 L 4 0" />
        </g>
        <g transform="translate(0 120)">
          <path d="M 0 -4 L 0 4" />
          <path d="M -4 0 L 4 0" />
        </g>
        <g transform="translate(120 120)">
          <path d="M 0 -4 L 0 4" />
          <path d="M -4 0 L 4 0" />
        </g>
      </g>
    </pattern>

    <filter id="paper" x="-20%" y="-20%" width="140%" height="140%">
      <feTurbulence type="fractalNoise" baseFrequency="0.9" numOctaves="2" stitchTiles="stitch"/>
      <feColorMatrix type="matrix" values="
        1 0 0 0 0
        0 1 0 0 0
        0 0 1 0 0
        0 0 0 0.08 0"/>
    </filter>
  </defs>

  <rect width="720" height="720" fill="#18181b"/>
  <rect width="720" height="720" filter="url(#paper)"/>

  <rect width="720" height="720" fill="url(#fine)"/>
  <rect width="720" height="720" fill="url(#major)"/>
  <rect width="720" height="720" fill="url(#plus)"/>
</svg>
